<svg xmlns="http://www.w3.org/2000/svg" version="1.1" xmlnsXlink="http://www.w3.org/1999/xlink" xmlnsSvgjs="http://svgjs.com/svgjs" width="1440" height="560" preserveAspectRatio="none" viewBox="0 0 1440 560"><g mask="url(&quot;#SvgjsMask1169&quot;)" fill="none"><path d="M -71.68053711624384,69 C 0.32,115.6 144.32,290.2 288.31946288375616,302 C 432.32,313.8 504.32,92.4 648.3194628837562,128 C 792.32,163.6 864.32,485.6 1008.3194628837562,480 C 1152.32,474.4 1224.32,97.2 1368.3194628837562,100 C 1512.32,102.8 1713.98,487.4 1728.3194628837562,494 C 1742.66,500.6 1497.66,205.2 1440,133" stroke="rgba(196, 55, 73, 1)" stroke-width="2"></path><path d="M -385.6024746669,495 C -313.6,414.8 -169.6,93 -25.602474666899965,94 C 118.4,95 190.4,466.4 334.3975253331,500 C 478.4,533.6 550.4,298.8 694.3975253331,262 C 838.4,225.2 910.4,322.6 1054.3975253331,316 C 1198.4,309.4 1337.28,198.4 1414.3975253331,229 C 1491.52,259.6 1434.88,421 1440,469" stroke="rgba(196, 55, 73, 1)" stroke-width="2"></path><path d="M -310.96948793423917,244 C -238.97,287.4 -94.97,483 49.03051206576086,461 C 193.03,439 265.03,150.6 409.03051206576083,134 C 553.03,117.4 625.03,368.8 769.0305120657608,378 C 913.03,387.2 985.03,167.2 1129.0305120657608,180 C 1273.03,192.8 1426.84,437 1489.0305120657608,442 C 1551.22,447 1449.81,252.4 1440,205" stroke="rgba(196, 55, 73, 1)" stroke-width="2"></path><path d="M -206.6198954329177,321 C -134.62,289.2 9.38,132.6 153.3801045670823,162 C 297.38,191.4 369.38,492.6 513.3801045670823,468 C 657.38,443.4 729.38,31 873.3801045670823,39 C 1017.38,47 1089.38,478.2 1233.3801045670823,508 C 1377.38,537.8 1552.06,223.4 1593.3801045670823,188 C 1634.7,152.6 1470.68,302.4 1440,331" stroke="rgba(196, 55, 73, 1)" stroke-width="2"></path><path d="M -231.49294573877722,151 C -159.49,184.4 -15.49,321 128.50705426122278,318 C 272.51,315 344.51,97.2 488.5070542612228,136 C 632.51,174.8 704.51,486.8 848.5070542612227,512 C 992.51,537.2 1064.51,291.2 1208.5070542612227,262 C 1352.51,232.8 1522.21,410.4 1568.5070542612227,366 C 1614.81,321.6 1465.7,105.2 1440,40" stroke="rgba(196, 55, 73, 1)" stroke-width="2"></path><path d="M -218.46718377646576,440 C -146.47,393.4 -2.47,198.4 141.53281622353424,207 C 285.53,215.6 357.53,499.2 501.53281622353427,483 C 645.53,466.8 717.53,132 861.5328162235343,126 C 1005.53,120 1077.53,427.8 1221.5328162235342,453 C 1365.53,478.2 1537.84,252.2 1581.5328162235342,252 C 1625.23,251.8 1468.31,412 1440,452" stroke="rgba(196, 55, 73, 1)" stroke-width="2"></path></g><defs><mask id="SvgjsMask1169"><rect width="1440" height="560" fill="#ffffff"></rect></mask></defs></svg>
