<svg xmlns="http://www.w3.org/2000/svg" version="1.1" xmlnsXlink="http://www.w3.org/1999/xlink" xmlnsSvgjs="http://svgjs.dev/svgjs" width="1000" height="1000" viewBox="0 0 1000 1000"><rect width="1000" height="1000" fill="#282634"></rect><g transform="matrix(0.7,0,0,0.7,149.5757659410408,443.6657488641399)"><svg viewBox="0 0 396 64" data-background-color="#282634" preserveAspectRatio="xMidYMid meet" height="161" width="1000" xmlns="http://www.w3.org/2000/svg" xmlnsXlink="http://www.w3.org/1999/xlink"><g id="tight-bounds" transform="matrix(1,0,0,1,0.2399952676397561,-0.008942803244991637)"><svg viewBox="0 0 395.52 64.01788122917421" height="64.01788122917421" width="395.52"><g><svg viewBox="0 0 501.34236177557216 81.14602490721649" height="64.01788122917421" width="395.52"><g transform="matrix(1,0,0,1,105.82236177557216,11.214826886597937)"><svg viewBox="0 0 395.52 58.71637113402061" height="58.71637113402061" width="395.52"><g id="textblocktransform"><svg viewBox="0 0 395.52 58.71637113402061" height="58.71637113402061" width="395.52" id="textblock"><g><svg viewBox="0 0 395.52 58.71637113402061" height="58.71637113402061" width="395.52"><g transform="matrix(1,0,0,1,0,0)"><svg width="395.52" viewBox="0.8500000238418579 -35.5 240.67999267578125 36" height="58.71637113402061" data-palette-color="#ff4057"><g class="undefined-text-0" data-fill-palette-color="primary" id="text-0"><path d="M5.85-33.5L5.85-35 26.35-35 13.6 0.05 0.85-35 2.45-35 13.6-4.35 24.2-33.5 5.85-33.5ZM33.65-35L33.65 0 32.15 0 32.15-35 33.65-35ZM51.55 0L51.55 0 43.55 0 43.55-35 49.65-35Q56.25-35 59.6-32.58 62.95-30.15 62.95-25.75L62.95-25.75Q62.95-20.75 58.75-18.4L58.75-18.4Q64.84-16.1 64.84-9.75L64.84-9.75Q64.84-5.25 61.55-2.63 58.25 0 51.55 0ZM45.05-1.5L51.55-1.5Q53.9-1.5 55.85-1.88 57.8-2.25 59.57-3.13 61.35-4 62.35-5.7 63.35-7.4 63.35-9.75L63.35-9.75Q63.35-15.1 58.2-17L58.2-17 55.2-18.1 58-19.7Q61.45-21.6 61.45-25.75L61.45-25.75Q61.45-33.5 49.65-33.5L49.65-33.5 45.05-33.5 45.05-1.5ZM90.44-19.8L90.44-18.3 75.59-18.3 90.89-33.5 73.99-33.5 73.99-1.5 93.39-1.5 93.39 0 72.49 0 72.49-35 94.54-35 79.24-19.8 90.44-19.8Z" fill="#ff4057" data-fill-palette-color="primary"></path><path d="M119.84-7.05L121.19-6.4Q119.84-3.1 117.39-1.3 114.94 0.5 110.04 0.5L110.04 0.5Q103.89 0.5 101.14-3.28 98.39-7.05 98.39-15.05L98.39-15.05 98.39-19.95Q98.39-27.95 101.14-31.73 103.89-35.5 110.04-35.5L110.04-35.5Q114.94-35.5 117.39-33.7 119.84-31.9 121.19-28.6L121.19-28.6 119.84-27.95Q118.69-30.85 116.59-32.43 114.49-34 110.04-34L110.04-34Q107.59-34 105.84-33.38 104.09-32.75 102.69-31.25 101.29-29.75 100.59-26.93 99.89-24.1 99.89-19.95L99.89-19.95 99.89-15.05Q99.89-10.9 100.59-8.08 101.29-5.25 102.69-3.75 104.09-2.25 105.84-1.63 107.59-1 110.04-1L110.04-1Q114.49-1 116.59-2.58 118.69-4.15 119.84-7.05L119.84-7.05ZM149.84-35L149.84 0 148.34 0 148.34-17.5 130.34-17.5 130.34 0 128.84 0 128.84-35 130.34-35 130.34-19 148.34-19 148.34-35 149.84-35ZM177.69-19.8L177.69-18.3 162.84-18.3 178.13-33.5 161.24-33.5 161.24-1.5 180.63-1.5 180.63 0 159.74 0 159.74-35 181.79-35 166.49-19.8 177.69-19.8ZM208.88-7.05L210.23-6.4Q208.88-3.1 206.43-1.3 203.98 0.5 199.08 0.5L199.08 0.5Q192.93 0.5 190.18-3.28 187.43-7.05 187.43-15.05L187.43-15.05 187.43-19.95Q187.43-27.95 190.18-31.73 192.93-35.5 199.08-35.5L199.08-35.5Q203.98-35.5 206.43-33.7 208.88-31.9 210.23-28.6L210.23-28.6 208.88-27.95Q207.73-30.85 205.63-32.43 203.53-34 199.08-34L199.08-34Q196.63-34 194.88-33.38 193.13-32.75 191.73-31.25 190.33-29.75 189.63-26.93 188.93-24.1 188.93-19.95L188.93-19.95 188.93-15.05Q188.93-10.9 189.63-8.08 190.33-5.25 191.73-3.75 193.13-2.25 194.88-1.63 196.63-1 199.08-1L199.08-1Q203.53-1 205.63-2.58 207.73-4.15 208.88-7.05L208.88-7.05ZM217.88-35L219.38-35 219.38 0 217.88 0 217.88-35ZM237.78-35L239.93-35 223.13-18.3 241.53 0 239.38 0 220.98-18.3 237.78-35Z" fill="#dcdcdc" data-fill-palette-color="secondary"></path></g></svg></g></svg></g></svg></g></svg></g><g><svg viewBox="0 0 91.9608357437371 81.14602490721649" height="81.14602490721649" width="91.9608357437371"><g><svg xmlns="http://www.w3.org/2000/svg" xmlns:xlink="http://www.w3.org/1999/xlink" version="1.1" x="0" y="0" viewBox="8.157174110412598 19.94239044189453 82.05963134765625 72.40922546386719" enable-background="new 0 0 100 100" xml:space="preserve" height="81.14602490721649" width="91.9608357437371" class="icon-icon-0" data-fill-palette-color="accent" id="icon-0"><path d="M88.721 20.993c-4.344-3.1-9.382 1.34-12.112 4.531-4.231 4.945-7.09 11.064-9.078 17.216-0.85-4.681-2.316-10.591-6.879-13.048-4.097-2.206-9.751 0.737-10.521 5.259-3.813-3.412-10.24-1.197-11.498 3.68-3.451-2.288-8.168-0.645-9.735 3.122-3.049-4.775-6.283-9.608-10.261-13.668-1.796-1.833-4.89-4.873-7.771-3.692-4.11 1.685-2.695 6.258-1.252 9.289 2.332 4.899 5.488 9.413 8.315 14.032 2.219 3.625 4.366 7.294 6.362 11.048 1.681 5.25 3.423 10.497 5.549 15.587 1.531 3.669 3.264 7.335 5.652 10.533 1.91 2.559 4.301 4.752 7.312 5.916 5.038 1.946 10.856 1.821 16.104 0.945 5.415-0.904 10.74-2.803 15.348-5.816 2.058-1.346 4.04-2.884 5.419-4.949 1.188-1.779 1.877-3.827 2.216-5.929 0.801-4.971 0.013-10.105-0.271-15.087-0.319-5.602-0.077-11.208 1.218-16.684 0.576-2.437 1.327-4.905 2.577-7.089l0.041-0.079c1.402-2.855 3.035-5.639 4.092-8.65C90.293 25.334 90.856 22.518 88.721 20.993 87.569 20.172 91.977 23.318 88.721 20.993zM56.485 31.92c2.67-0.903 4.791 1.59 5.929 3.676 1.043 1.912 1.524 3.986 1.934 6.104 0.602 3.11 1.065 6.252 1.474 9.394 0.037 2.161-2.162 3.613-4.115 3.883-2.664 0.368-4.168-2.625-5.023-4.655-0.82-2.655-1.994-6.116-2.91-8.765l-0.529-2.172C52.184 35.044 53.032 33.091 56.485 31.92 57.418 31.605 53.032 33.091 56.485 31.92zM43.708 36.596c2.66-1.17 4.296-0.512 6.3 2.724 0.64 1.811 2.214 6.305 3.417 10.039 0.667 2.128 1.509 4.268 1.158 6.542-0.183 1.186-0.679 2.484-1.692 3.205-1.522 1.084-3.374 0.035-4.596-1.004l-6.922-16.028-0.086-0.403C41.209 41.294 40.601 37.961 43.708 36.596 46.368 35.425 40.601 37.961 43.708 36.596zM33.732 40.645c2.327-0.944 3.939 0.643 4.617 1.525l6.765 15.665 0.382 1.263c0.75 2.46-2.043 3.439-4.048 3.001-2.074-0.453-3.657-2.207-4.842-3.859-2.545-3.552-4.185-7.847-5.363-12.03l-0.103-0.63C31.117 45.43 30.586 41.922 33.732 40.645 36.06 39.701 30.586 41.922 33.732 40.645zM84.099 32.552c-0.394 0.768-0.783 1.532-1.151 2.277-2.472 4.347-3.465 9.595-3.981 14.515-0.597 5.698-0.092 11.358 0.271 17.052 0.273 4.299 0.573 9.215-1.899 12.987-1.236 1.886-3.115 3.24-4.996 4.428-2.054 1.297-4.259 2.352-6.535 3.194-4.383 1.621-9.09 2.515-13.768 2.501-3.49-0.011-7.354-0.455-10.34-2.419-2.583-1.698-4.452-4.309-5.972-6.951-2.237-3.887-3.883-8.108-5.408-12.315-1.203-3.32-2.311-6.675-3.387-10.04l-0.038-0.119-0.059-0.11c-2.751-5.187-5.802-10.201-8.9-15.185-1.589-2.555-3.201-5.1-4.657-7.733-0.947-1.713-2.07-3.619-2.339-5.594-0.124-0.908 0.265-2.251 1.439-2.048 0.632 0.109 1.22 0.483 1.734 0.845 3.49 2.446 6.143 6.305 8.574 9.721 1.982 2.786 3.854 5.653 5.624 8.578 1.129 4.301 2.745 8.611 5.108 12.392 1.382 2.211 3.134 4.404 5.494 5.617 3.039 1.561 8.119 1.084 9.301-2.672 4.354 2.42 8.431-0.589 9.131-5.146 2.767 2.37 6.871 1.639 9.385-0.783 1.332-1.284 1.777-2.967 1.692-4.763l-0.004-0.114c-0.004-0.085-0.007-0.17-0.012-0.256 1.764-8.371 5.021-17.328 10.892-23.742 1.618-1.768 5.198-5.236 7.787-3.385 0.948 0.678-0.072 2.919-0.367 3.686C85.98 28.889 85.032 30.723 84.099 32.552 83.705 33.32 85.694 29.428 84.099 32.552z" fill="#dcdcdc" data-fill-palette-color="accent"></path></svg></g></svg></g></svg></g><defs></defs></svg><rect width="395.52" height="64.01788122917421" fill="none" stroke="none" visibility="hidden"></rect></g></svg></g></svg>
